<svg id="Camada_1" data-name="Camada 1" xmlns="http://www.w3.org/2000/svg" viewBox="0 0 845.58 800"><defs><style>.cls-1{fill:#c00;}</style></defs><title>logo-marcelo</title><path class="cls-1" d="M413.62,132.37c-20.83,5.71-35,6.55-80.81,9-77.21,4.08-91.77,4.58-109.7,16.78-7.21,4.9-23.63,16.32-30.17,37.69-4.28,14-2.43,25.68-.8,35.32a132.27,132.27,0,0,0,21.21,49c21.07,29.55,89.64,63.16,185.3,75.94V474.59a636.26,636.26,0,0,1,142.78-30.38c26.78-2.53,102.51-7.95,197.46,12.15a673.52,673.52,0,0,1,75.82,20.73q.06-28.59.13-57.18a688.19,688.19,0,0,0-370.62-15.19,649.28,649.28,0,0,1,373.65-12.15q-.54-51.76-1.09-103.51c1.28.59,13,6.28,15.86,19.89,2.75,13.12-5,22.76-6,23.95,93,29.24,176.81,1.5,200.82-49.7,11.2-23.86,11.23-56.74,0-85.06-18.08-45.62-58.81-62.83-66.14-65.77a151.23,151.23,0,0,1-18,38.91,174.27,174.27,0,0,1-19.18,23.83C882,238.3,811.8,265,811.8,265c-64.62,24.57-123.71,47-212.65,57.72C528.2,331.21,467.29,337.81,395.66,312a327.51,327.51,0,0,1-54.72-25.71A978.56,978.56,0,0,0,461.51,294a950.7,950.7,0,0,0,134.68-9c59.78-8.54,127.28-18.18,203.46-56.49a506.82,506.82,0,0,0,92.85-60.24c9.09-10.35,34.2-41.55,26.94-74.82C911,54.71,864.11,38.12,827,25,788,11.19,676.9-28.15,565.74,34.1,498.5,71.76,464.52,127.85,450.3,155.62c-6.69-14-5.64-22.28-3-27.35,4-7.74,15.29-15.14,15.23-15.21l0,0A244.33,244.33,0,0,1,413.62,132.37Z" transform="translate(-190.31 0)"/><path class="cls-1" d="M398.65,527.45V689.07a195.59,195.59,0,0,1,35.92-53.88,123.64,123.64,0,0,1-9,23.95,125.38,125.38,0,0,1-26.94,35.91v98.77a19.65,19.65,0,0,0,9,3,20,20,0,0,0,12-3V704h12v86.8a15,15,0,0,0,23.94,0V704h12v86.8a12.49,12.49,0,0,0,12,6,12.85,12.85,0,0,0,9-6V695.05a150.18,150.18,0,0,1-32.93-59.86,137.79,137.79,0,0,1,32.93,53.88V623.22a38,38,0,0,1,71.83,3V769.88a46.42,46.42,0,0,0,86.8,0V626.22c5.46-17.18,21.82-28.28,38.9-26.94,15.1,1.18,28.25,11.88,32.93,26.94V760.9c5.21,24.56,27.67,41.07,50.88,38.91,20.27-1.89,37.61-17.69,41.9-38.91V527.45c-.8-1.47-14.35-25.34-41.9-26.94a51.55,51.55,0,0,0-47.89,26.94c-3.19-3.61-24.59-26.94-59.86-26.94s-56.67,23.33-59.86,26.94c-5-6.24-18.9-21.63-41.9-26.94-43.24-10-76.44,25.41-77.82,26.94a44.3,44.3,0,0,0-83.81,0Z" transform="translate(-190.31 0)"/></svg>