<?xml version="1.0" standalone="no"?>
<!DOCTYPE svg PUBLIC "-//W3C//DTD SVG 20010904//EN"
 "http://www.w3.org/TR/2001/REC-SVG-20010904/DTD/svg10.dtd">
<svg version="1.0" xmlns="http://www.w3.org/2000/svg"
 width="1280.000000pt" height="1280.000000pt" viewBox="0 0 1280.000000 1280.000000"
 preserveAspectRatio="xMidYMid meet">
<metadata>
Created by potrace 1.14, written by Peter Selinger 2001-2017
</metadata>
<g transform="translate(0.000000,1280.000000) scale(0.100000,-0.100000)"
fill="#000000" stroke="none">
<path d="M6758 10395 c-1 -1 -35 -6 -74 -9 -39 -4 -80 -8 -91 -11 -11 -2 -38
-6 -59 -10 -78 -12 -101 -16 -184 -36 -47 -11 -89 -20 -95 -20 -5 -1 -17 -5
-26 -10 -9 -4 -27 -10 -40 -13 -40 -7 -198 -66 -299 -110 -409 -180 -770 -460
-1055 -817 -116 -146 -172 -228 -263 -387 -39 -67 -72 -119 -75 -115 -3 4 -14
37 -25 73 -22 71 -21 144 2 188 14 26 75 90 126 132 16 13 -1 8 -47 -15 -97
-47 -252 -108 -343 -135 -41 -12 -76 -22 -77 -22 -2 0 -17 -4 -35 -9 -18 -6
-48 -12 -67 -15 -19 -2 -37 -6 -40 -8 -6 -4 -24 -7 -131 -21 -68 -9 -233 -22
-395 -30 -275 -14 -403 -21 -705 -41 -196 -12 -350 -41 -440 -82 -57 -26 -144
-88 -210 -149 -91 -84 -141 -161 -180 -278 -33 -97 -33 -269 0 -400 25 -99 93
-276 121 -317 11 -14 19 -29 19 -33 0 -18 92 -138 150 -195 129 -126 298 -229
604 -365 42 -19 252 -95 276 -100 8 -2 28 -8 43 -14 71 -28 433 -118 537 -135
19 -3 73 -12 120 -20 47 -8 105 -18 130 -21 25 -4 47 -9 50 -12 3 -2 5 -269 5
-591 1 -508 3 -587 15 -584 8 2 56 17 105 32 101 33 297 89 334 96 14 3 28 7
31 9 4 2 22 7 41 10 19 3 70 14 114 25 76 18 260 54 334 66 18 3 42 7 53 9 11
3 46 7 77 11 31 3 58 8 61 9 3 2 34 6 70 10 36 4 73 9 82 10 9 2 57 7 105 10
48 4 99 9 113 11 158 20 752 20 950 -1 19 -2 73 -7 120 -10 47 -4 96 -8 110
-10 14 -2 52 -7 85 -11 33 -3 67 -7 75 -9 8 -1 40 -6 70 -10 246 -31 751 -138
920 -195 40 -13 170 -51 172 -49 2 0 27 -9 56 -20 29 -12 57 -21 61 -21 5 0 8
129 7 287 l-1 286 -55 19 c-30 10 -64 20 -75 23 -11 2 -51 13 -90 25 -84 25
-72 22 -220 60 -66 17 -133 33 -148 36 -16 2 -66 13 -110 23 -45 11 -95 22
-112 24 -35 6 -208 36 -245 43 -34 6 -88 13 -210 29 -19 2 -55 7 -80 10 -25 3
-70 8 -100 10 -30 3 -77 7 -105 10 -261 26 -851 26 -1130 0 -27 -2 -79 -7
-115 -10 -36 -4 -78 -8 -95 -10 -16 -2 -52 -7 -80 -10 -27 -3 -61 -8 -75 -10
-14 -2 -63 -9 -110 -15 -47 -6 -143 -23 -215 -37 -71 -14 -139 -27 -150 -29
-11 -2 -33 -6 -50 -9 -29 -5 -29 -5 -5 6 22 9 323 96 360 104 8 2 67 15 130
30 148 34 137 32 265 55 61 11 119 22 130 24 11 2 45 7 75 12 30 4 57 8 60 9
10 2 123 17 154 20 17 1 63 6 101 10 39 3 81 8 95 10 181 27 913 27 1144 0 17
-2 65 -7 106 -10 41 -4 82 -9 91 -10 9 -2 40 -6 70 -10 224 -27 621 -104 797
-154 l32 -10 -6 516 c-4 476 -4 515 12 509 48 -19 105 -87 130 -158 27 -77 14
-155 -43 -259 -6 -11 160 -64 235 -74 15 -3 36 -6 47 -8 11 -3 40 -8 65 -12
25 -4 53 -9 64 -11 106 -20 425 -26 565 -11 170 18 387 77 531 144 277 130
488 359 545 593 2 8 9 38 15 65 19 77 21 297 5 400 -59 380 -306 708 -664 884
l-65 31 -31 -82 c-122 -318 -287 -531 -595 -764 -207 -158 -517 -333 -800
-452 -242 -102 -803 -299 -1115 -392 -70 -21 -404 -104 -460 -114 -16 -4 -79
-15 -140 -26 -60 -11 -121 -22 -135 -25 -14 -3 -45 -8 -70 -11 -25 -3 -52 -7
-60 -9 -8 -2 -37 -7 -65 -10 -27 -4 -61 -8 -75 -10 -14 -3 -47 -7 -75 -10 -27
-3 -61 -8 -75 -10 -14 -2 -54 -6 -90 -10 -36 -4 -76 -8 -90 -10 -14 -2 -58 -7
-99 -10 -41 -4 -82 -8 -90 -10 -15 -2 -155 -12 -296 -21 -78 -4 -401 -4 -440
0 -16 2 -64 7 -105 10 -63 5 -178 21 -290 41 -177 30 -437 111 -635 196 -94
40 -344 164 -355 176 -3 3 24 2 60 -2 134 -15 319 -32 435 -40 225 -16 348
-20 730 -19 373 0 567 5 705 18 19 2 73 7 120 11 47 3 101 8 120 10 19 2 62 7
95 10 57 6 75 8 155 19 19 3 58 8 85 11 28 4 62 8 78 11 15 2 39 6 55 8 15 3
47 7 72 10 25 3 56 8 70 11 14 3 48 7 75 10 28 3 57 8 65 10 8 2 29 6 45 9 39
7 82 14 125 21 28 5 173 34 295 60 11 2 67 16 125 30 58 15 112 28 120 30 8 2
53 15 100 28 482 142 953 363 1385 650 112 75 340 245 379 283 101 100 228
323 264 464 27 109 23 252 -10 346 -97 274 -356 442 -1031 668 -119 40 -320
99 -376 111 -9 2 -48 10 -86 19 -106 22 -121 25 -230 41 -55 7 -120 17 -145
20 -45 7 -545 16 -552 10z m-2221 -4021 c-3 -3 -12 -4 -19 -1 -8 3 -5 6 6 6
11 1 17 -2 13 -5z"/>
<path d="M4367 5424 c-1 -1 -22 -5 -46 -8 -115 -15 -259 -123 -311 -231 l-24
-50 -1 -812 c0 -446 1 -811 2 -809 1 1 23 42 49 91 44 87 158 264 206 321 53
63 100 108 93 89 -4 -11 -8 -28 -10 -38 -2 -9 -23 -60 -45 -112 -53 -119 -138
-250 -227 -346 l-69 -74 1 -492 c0 -270 2 -493 5 -495 35 -27 144 -33 186 -10
20 11 20 15 20 460 l-1 450 60 -1 60 -1 0 -434 0 -434 27 -23 c53 -45 133 -44
186 0 l29 24 -1 434 -1 434 52 1 c29 0 56 -4 59 -10 4 -6 7 -201 7 -435 l0
-425 24 -24 c44 -44 120 -44 165 0 l23 24 0 481 0 481 -46 58 c-131 165 -223
336 -268 498 l-10 36 35 -38 c100 -113 264 -382 264 -436 0 -9 5 -20 10 -23 6
-4 7 -12 4 -18 -4 -7 -3 -8 2 -4 5 5 9 153 9 330 l1 322 36 56 c109 170 331
225 502 125 62 -36 122 -100 153 -164 l26 -54 1 -731 1 -732 42 -61 c53 -78
111 -129 188 -165 81 -38 135 -49 230 -44 139 6 261 72 348 188 63 83 60 43
60 832 l-1 720 25 49 c49 98 146 175 253 204 19 5 65 8 102 6 75 -3 169 -42
224 -92 41 -39 89 -109 102 -152 7 -23 11 -258 11 -705 0 -368 3 -681 5 -694
10 -45 64 -146 101 -189 49 -56 126 -112 195 -142 63 -27 210 -37 276 -19 144
40 260 143 325 289 l24 55 1 1189 1 1189 -35 46 c-68 92 -171 166 -274 198
-81 25 -218 22 -297 -6 -119 -43 -191 -97 -263 -197 -31 -43 -33 -45 -48 -27
-8 10 -41 40 -72 65 -230 188 -542 235 -808 123 -94 -39 -178 -93 -245 -156
l-51 -48 -45 45 c-102 106 -259 199 -367 219 -15 3 -38 7 -52 10 -30 7 -218 7
-229 1 -4 -3 -18 -7 -32 -9 -131 -24 -285 -103 -412 -211 l-63 -53 -22 48
c-50 107 -188 215 -302 235 -44 7 -128 13 -133 8z"/>
</g>
</svg>
